<svg viewBox="0 0 1366 1366" xmlns="http://www.w3.org/2000/svg">
  <path fill="#0af9fc" d="M1354.15,1088.51l-1.13-810.66c-.21-150.24-131.36-266.99-278.39-266.93l-798.3.31C129.8,20.42,16.09,135.99,12.04,282.9l-.19,790.75c-.04,163.69,127.59,281.87,295.85,281.42l779.19-2.06c139.58-.37,267.46-126.85,267.27-264.51Z"/>
  <path fill="#0af9fc" d="M1354.15,1088.51c.19,137.66-127.69,264.14-267.27,264.51l-779.19,2.06c-168.26.45-295.89-117.74-295.85-281.42l.19-790.75C16.09,135.99,129.8,20.42,276.32,11.23l798.3-.31c147.03-.06,278.18,116.69,278.39,266.93l1.13,810.66ZM374.57,1106.72l40.5,8.65.4,32.43c.11,9.09,4.94,16.23,13.4,16.78,7.88.51,14.83-5.8,14.91-14.82l.31-34.39,41.65-8.31,8.21,21.14c2.92,7.52,12.37,10.08,19.53,6.4,4.71-2.42,8.45-10.94,6.14-17.02l-8.02-21.16,35.09-23.44,24.61,24.28c5.62,5.55,14.83,5.95,20.44.9,3.64-3.27,5.98-13.3,1.74-17.71l-26.57-27.63,23.25-35.28,18.85,7.95c7.33,3.09,15.62.71,18.91-5.25,3.87-7.03.83-16.62-6.44-19.77l-20.69-8.96,8.36-41.25,39.08-1.03c7.78-.21,10.94-12.02,8.85-17.45-2.43-6.32-8.55-10.23-15.86-10.19l-32.02.21-7.96-40.88,20.72-9.75c7.33-3.45,9.29-14.68,5.36-20.17-4.4-6.15-12.59-6.85-19.77-3.9l-17.16,7.05c-7.31-5.1-13.37-6.67-19.42-2.98-4.25,2.59-7.55,12.41-5.02,17.85,33.1,70.99,10.23,151.97-53.85,193.7-63.46,41.33-149.04,29.04-197.93-28.56-48.74-57.41-48.57-143.52,3.22-200.14,42.07-45.99,106.12-59.81,164.99-39.98,3.47,1.17,10.34-.39,13.41-2.29l118.56-126.43c20.47-20.22,34.24-42.81,47.45-68.15,59.6-114.24,117.09-182.16,213.77-266.52,6.53-5.7,5.81-15.91.73-20.44-6.85-6.11-15.15-3.82-21.67,2.06-48.44,43.64-93.67,88.57-134.87,140.11-6.02-77.54,12.34-145.19,81.92-181.35,45.25-23.52,93.67-35.24,146.22-39.91-.36,78.58-15.65,175.56-84.91,219.12-27.38,16.86-57.04,22.91-89.21,26.21-9.08,6.86-16.1,17.34-20.68,29.05,58.31-.64,108.85-14.16,151.8-52.39,61.22-62.81,75.75-167.64,68.65-253.06-81.08,6-172.53,25.09-229.93,79.46-53.77,55.82-58.65,130.3-48.7,206.33l-23.47,37.12-12.83-32.59c6.75-76.61-3.33-145.16-78.53-177.31-38.77-16.57-80.14-24.9-122.81-27.27-3.4,46.18,1.55,89.21,17.31,130.37,26.67,69.66,86.58,90.65,159.5,90.77,8.59,15.76,18.19,36.47,11.79,55.45-8.63,25.59-22.11,51.19-40.97,71.35l-122.03,130.41-38.8-7.37-.61-37.45c-.12-7.34-8.24-12.95-14.49-12.56-5.5.35-12.89,5.63-12.97,11.81l-.47,38.03-41.89,8.13-8.39-20.86c-2.97-7.4-13.41-10.03-18.94-7.46-8.59,3.99-9.21,12.02-6.12,20.51l6.89,18.9-34.39,22.98-27.37-26.62c-4.37-4.25-15.67-1.85-18.99,2.18-2.84,3.45-4.44,14.25-1.04,17.65l26.9,26.93-22.55,34.62-19.29-7.11c-7.66-2.82-16.41-.44-20.16,6.77-2.29,4.4.18,15.22,5.24,17.52l22.37,10.16-7.8,41.03-33.57-.12c-8.84-.03-15.31,6.27-15.43,13.79-.13,8.89,6.06,14.33,15.55,14.41l34.01.28,7.74,41.27-20.24,8.49c-7.46,3.13-10.72,13.07-7.45,19.56,2.96,5.87,11.32,8.7,18.1,6.17l20.31-7.59,23.44,34.26-26.38,27.42c-4.69,4.88-2.7,15.25,1.31,18.57,4.61,3.83,14.24,4.96,18.17,1.07l27.5-27.21,34.38,24.07-8.08,22.68c-2.25,6.31,2.89,15.46,8.57,16.91,5.49,1.41,13.75-1.68,16.29-7.12l10.35-22.17ZM262.66,726.34l-.31-474.89c0-7.97-9.27-12.91-15-12.79-5.24.11-13.08,4.88-13.08,12.34l-.06,474.64c0,9.19,5.68,15.28,13.14,15.97,7.01.65,15.32-4.5,15.31-15.28ZM462.47,925.7l225.74-240.46,59.99,56.02c7.03,6.56,17.77,5.94,23.85-1.88l111.47-121.56,224.28-242.56c16.75,3.92,32.27-.51,39.92-14.31,7.56-13.65,5.21-30.27-5.09-40.35-11.2-10.96-28.59-13-41.61-4.21-12.03,8.12-18.05,23.11-13.25,39.69l-227.22,246.02-101.64,110.76-61.62-58.02c-5.47-5.15-13.72-4.82-19.41.68l-239.42,254.8c-4.57,4.87.46,16.97,4.76,19.11,5.32,2.65,13.02,2.91,19.26-3.74ZM1114.31,576.43c17.16-2.6,31.62-6.95,36.53-23.79,4.05-13.89-1.38-30.22-13.83-37.58-13.91-8.22-31.15-5.9-41.33,4.91-11.23,11.93-10.84,27.77-3.3,42.48-5.57,8.15-4.03,17.19,4.4,20.79,4.8,2.64,13.12-3.5,17.53-6.81ZM449.44,579.82l24.21,21.58c5.49,4.89,13.39,5.58,18.56,1.43,4.34-3.48,6.11-14.81,1.73-18.9l-28.64-26.68c3.6-15.43-2.97-29.18-13.86-35.84-11.96-7.32-26.87-5.67-36.5,1.92-11,8.66-15.74,21.13-11.36,36.33l-24.75,25c-4.29,4.34-3.1,14.81,1.27,18.47,3.65,3.07,13.38,3.33,16.91-.12l23.57-23.07c10.09,1.9,18.29,1.57,28.87-.12ZM1074.62,639.63l14.23-22.81c4.28-6.87,1.61-16.72-4.5-19.57-7.26-3.39-15.75-.77-19.5,5.67l-14.9,25.62c-2.41,4.14,2.95,14.69,7.2,16.56,4.77,2.1,14.29-.38,17.47-5.47ZM548.68,634.08l-22.06-20.15c-4.38-4-13.87-4.09-18.27-.09-3.5,3.18-5.81,13.88-1.86,17.65l23.26,22.18c5.08,4.84,15.14,3.25,19.19-1.3,4.05-4.55,4.35-14.08-.26-18.28ZM343.88,656.41l23.86-24.64c2.92-3.01.66-13.99-2.61-16.59-3.27-2.6-13.44-3.46-16.78-.34l-25.66,23.94c-3.56,3.32-1.13,15.87,2.62,18.71,3.77,2.85,14.15,3.49,18.58-1.07ZM1034.91,703l16.59-28.15c2.64-4.47-2.08-14.51-6.32-16.55-4.13-1.98-14.32-.39-16.74,3.5l-16.62,26.79c-2.57,4.15.77,14.09,4.52,16.74,3.91,2.76,15.93,2.14,18.57-2.33ZM292.07,708.7l20.95-21.63c3.48-3.59,1.84-14.81-1.82-17.68-3.87-3.04-14.47-3.28-17.83.06l-20.39,20.23c-5.42,5.38-4.76,14.84.65,20,4.59,4.39,13.73,3.88,18.44-.99ZM997.66,762.01l13.32-21.53c4.09-6.61,2.95-15.3-3.6-19.51-5-3.21-15.06-1.81-18.76,4.18l-15.37,24.82c-3.46,5.59.65,15.84,6.44,18.35s14.29-.35,17.97-6.3ZM690.54,776.88l-17.74-17.61c-3.76-3.73-13.65-3.55-17.35-.26-3.13,2.78-6.37,13.55-3.45,16.68l15.68,16.84c4.9,5.26,13.45,6.72,19.8,3.41,4.55-2.37,7.17-14.98,3.06-19.06ZM958.42,825.37l15.68-27.05c2.68-4.62-2.53-14.88-7.36-16.63-3.93-1.42-13.06.1-15.44,4.08l-17.92,29.88c-2.65,4.42,4.53,13.74,8.97,14.98,4.11,1.15,13.82-1.36,16.08-5.26ZM740.54,822.24l-22.42-19.91c-3.71-3.29-15.17.38-17.39,4.52-2.7,5.01-1.44,14.04,2.53,17.75l17.2,16.06c4.33,4.05,14.42,4.16,18.81.11,3.57-3.29,5.81-14.47,1.27-18.51ZM393.18,868.09c7.24-2.09,11.29-11.13,9.16-17.7-7.3-22.58-64.87.56-74.94,52.39-1.5,7.74,4.57,14.79,11.54,15.93,22.08,3.64,7.78-37.19,54.24-50.62ZM919.99,887.01l14.77-24.83c3.32-5.59-1-16.19-6.33-18.09-5.32-1.9-14.38-.14-17.23,4.33l-14.99,23.56c-3.52,5.53-.74,14.99,3.73,18.22,5.33,3.86,16.45,2.85,20.05-3.19ZM791.62,869l-20.43-18.85c-3.87-3.57-15.06-2-18.13,1.68-3.18,3.81-3.71,15.29.05,18.65l21.31,19.01c3.62,3.23,14.93.63,17.82-2.9s3.21-14.04-.62-17.58ZM868.58,914.59l-21.68,4.32-24.8-21.52c-5.01-4.35-14.69-3.07-18.96,1.7-3.33,3.73-3.61,14.77,1.09,18.6l27.21,22.16c-3.68,15.19,3.49,30.33,16.34,36.91,14.25,7.29,30.56,3.72,40.12-7.4,10.23-11.9,7.78-26.7,2.87-40.48,4.42-4.48,7.28-13.45,4.75-18.5-1.91-3.82-9.09-7.58-14.14-6.69-3.67.64-8.1,5.43-12.78,10.9ZM502.3,1008.31c9.67-8.39,15.52-17.9,19.73-28.71,2.91-7.49-2.05-16.33-7.89-18.02-8.64-2.51-14.9,1.02-18.71,8.81-8.14,16.66-22.42,23.27-12.56,35.43,3.35,4.13,14.53,6.75,19.43,2.49ZM382.67,986.55c-5.31-6.27-13.09-8.36-20.3-3.41-4.43,3.05-7.71,13.49-3.09,19.06,18.44,22.19,42.55,38.98,50.2,20.84,6.87-16.3-11.28-18.14-26.81-36.49ZM1153.82,1106.87c7.59-3.53,11.16-8.77,11.09-14.33-.07-4.91-4.12-10.46-9.81-13.52l-513.32.12c-6.32,0-9.79,11.44-9.07,15.83.64,3.9,4.71,11.82,10.92,11.82l510.19.09Z"/>
  <path fill="#a8f575" d="M374.57,1106.72l-10.35,22.17c-2.54,5.44-10.8,8.53-16.29,7.12-5.68-1.46-10.82-10.61-8.57-16.91l8.08-22.68-34.38-24.07-27.5,27.21c-3.93,3.89-13.56,2.76-18.17-1.07-4.01-3.33-6-13.7-1.31-18.57l26.38-27.42-23.44-34.26-20.31,7.59c-6.78,2.53-15.15-.29-18.1-6.17-3.27-6.49-.01-16.43,7.45-19.56l20.24-8.49-7.74-41.27-34.01-.28c-9.5-.08-15.68-5.52-15.55-14.41.11-7.51,6.58-13.82,15.43-13.79l33.57.12,7.8-41.03-22.37-10.16c-5.06-2.3-7.53-13.12-5.24-17.52,3.75-7.21,12.5-9.59,20.16-6.77l19.29,7.11,22.55-34.62-26.9-26.93c-3.4-3.4-1.81-14.21,1.04-17.65,3.32-4.03,14.62-6.43,18.99-2.18l27.37,26.62,34.39-22.98-6.89-18.9c-3.09-8.49-2.47-16.52,6.12-20.51,5.53-2.57,15.96.06,18.94,7.46l8.39,20.86,41.89-8.13.47-38.03c.08-6.18,7.47-11.46,12.97-11.81,6.25-.39,14.37,5.22,14.49,12.56l.61,37.45,38.8,7.37,122.03-130.41c18.86-20.16,32.35-45.76,40.97-71.35,6.4-18.98-3.2-39.69-11.79-55.45-72.91-.12-132.82-21.11-159.5-90.77-15.76-41.16-20.71-84.19-17.31-130.37,42.67,2.36,84.04,10.69,122.81,27.27,75.21,32.15,85.28,100.7,78.53,177.31l12.83,32.59,23.47-37.12c-9.95-76.03-5.07-150.51,48.7-206.33,57.41-54.37,148.85-73.47,229.93-79.46,7.1,85.42-7.43,190.25-68.65,253.06-42.95,38.23-93.5,51.75-151.8,52.39,4.58-11.71,11.6-22.19,20.68-29.05,32.16-3.3,61.83-9.35,89.21-26.21,69.26-43.56,84.55-140.54,84.91-219.12-52.56,4.67-100.97,16.4-146.22,39.91-69.57,36.16-87.93,103.81-81.92,181.35,41.2-51.54,86.43-96.47,134.87-140.11,6.52-5.88,14.82-8.17,21.67-2.06,5.08,4.52,5.8,14.74-.73,20.44-96.68,84.36-154.16,152.28-213.77,266.52-13.22,25.34-26.99,47.93-47.45,68.15l-118.56,126.43c-3.07,1.9-9.95,3.46-13.41,2.29-58.87-19.82-122.91-6.01-164.99,39.98-51.79,56.62-51.96,142.73-3.22,200.14,48.9,57.6,134.48,69.88,197.93,28.56,64.08-41.73,86.94-122.71,53.85-193.7-2.54-5.44.77-15.26,5.02-17.85,6.05-3.69,12.11-2.12,19.42,2.98l17.16-7.05c7.17-2.95,15.36-2.25,19.77,3.9,3.93,5.49,1.97,16.72-5.36,20.17l-20.72,9.75,7.96,40.88,32.02-.21c7.31-.05,13.42,3.87,15.86,10.19,2.09,5.43-1.07,17.24-8.85,17.45l-39.08,1.03-8.36,41.25,20.69,8.96c7.27,3.15,10.32,12.74,6.44,19.77-3.28,5.96-11.58,8.34-18.91,5.25l-18.85-7.95-23.25,35.28,26.57,27.63c4.24,4.41,1.89,14.44-1.74,17.71-5.61,5.05-14.82,4.65-20.44-.9l-24.61-24.28-35.09,23.44,8.02,21.16c2.31,6.09-1.43,14.6-6.14,17.02-7.16,3.68-16.61,1.12-19.53-6.4l-8.21-21.14-41.65,8.31-.31,34.39c-.08,9.02-7.03,15.33-14.91,14.82-8.46-.55-13.29-7.69-13.4-16.78l-.4-32.43-40.5-8.65ZM570.97,386.34l60.78,63.72c1.67-23.47-2.45-45.42-12.06-65.93-20.71-44.19-86.33-61.82-135.86-67.89,1.06,31.38,5.5,60.58,16.32,89.41,19.2,51.18,62.04,70.39,117.06,72.51-19.63-27.46-41.41-49.99-65.86-72.21-6.43-5.84-6.36-15.5-1.29-20.13,5.97-5.44,15.5-5.17,20.91.51Z"/>
  <path fill="#fb7b0e" d="M462.47,925.7c-6.24,6.65-13.95,6.39-19.26,3.74-4.3-2.14-9.33-14.24-4.76-19.11l239.42-254.8c5.69-5.5,13.93-5.84,19.41-.68l61.62,58.02,101.64-110.76,227.22-246.02c-4.8-16.58,1.22-31.57,13.25-39.69,13.02-8.79,30.41-6.75,41.61,4.21,10.3,10.08,12.66,26.7,5.09,40.35-7.65,13.8-23.17,18.23-39.92,14.31l-224.28,242.56-111.47,121.56c-6.08,7.82-16.82,8.44-23.85,1.88l-59.99-56.02-225.74,240.46Z"/>
  <path fill="#0af9fc" d="M262.66,726.34c0,10.78-8.3,15.93-15.31,15.28-7.46-.69-13.14-6.78-13.14-15.97l.06-474.64c0-7.46,7.83-12.23,13.08-12.34,5.73-.12,14.99,4.82,15,12.79l.31,474.89Z"/>
  <path fill="#0af9fc" d="M1153.82,1106.87l-510.19-.09c-6.21,0-10.28-7.92-10.92-11.82-.72-4.38,2.75-15.82,9.07-15.83l513.32-.12c5.69,3.06,9.74,8.61,9.81,13.52.08,5.56-3.5,10.8-11.09,14.33Z"/>
  <path fill="#0af9fc" d="M449.44,579.82c-10.58,1.68-18.77,2.02-28.87.12l-23.57,23.07c-3.53,3.45-13.26,3.19-16.91.12-4.36-3.67-5.56-14.13-1.27-18.47l24.75-25c-4.38-15.2.36-27.66,11.36-36.33,9.63-7.59,24.54-9.23,36.5-1.92,10.9,6.66,17.46,20.41,13.86,35.84l28.64,26.68c4.38,4.08,2.61,15.42-1.73,18.9-5.17,4.15-13.07,3.46-18.56-1.43l-24.21-21.58Z"/>
  <path fill="#0af9fc" d="M868.58,914.59c4.68-5.48,9.11-10.26,12.78-10.9,5.05-.88,12.23,2.88,14.14,6.69,2.53,5.05-.33,14.02-4.75,18.5,4.92,13.77,7.36,28.58-2.87,40.48-9.56,11.12-25.87,14.7-40.12,7.4-12.85-6.58-20.02-21.72-16.34-36.91l-27.21-22.16c-4.7-3.83-4.42-14.87-1.09-18.6,4.27-4.77,13.95-6.05,18.96-1.7l24.8,21.52,21.68-4.32Z"/>
  <path fill="#0af9fc" d="M1114.31,576.43c-4.41,3.31-12.73,9.45-17.53,6.81-8.43-3.6-9.97-12.64-4.4-20.79-7.54-14.71-7.94-30.55,3.3-42.48,10.19-10.81,27.42-13.13,41.33-4.91,12.45,7.36,17.88,23.69,13.83,37.58-4.91,16.84-19.37,21.18-36.53,23.79Z"/>
  <path fill="#a8f575" d="M393.18,868.09c-46.46,13.43-32.16,54.26-54.24,50.62-6.97-1.15-13.05-8.19-11.54-15.93,10.08-51.83,67.64-74.96,74.94-52.39,2.13,6.57-1.92,15.61-9.16,17.7Z"/>
  <path fill="#a8f575" d="M382.67,986.55c15.52,18.35,33.67,20.18,26.81,36.49-7.64,18.14-31.75,1.36-50.2-20.84-4.63-5.57-1.35-16.01,3.09-19.06,7.21-4.95,14.99-2.87,20.3,3.41Z"/>
  <path fill="#a8f575" d="M502.3,1008.31c-4.91,4.26-16.08,1.64-19.43-2.49-9.86-12.16,4.42-18.77,12.56-35.43,3.8-7.79,10.07-11.31,18.71-8.81,5.84,1.69,10.8,10.53,7.89,18.02-4.21,10.81-10.06,20.32-19.73,28.71Z"/>
  <path fill="#0af9fc" d="M343.88,656.41c-4.42,4.57-14.8,3.93-18.58,1.07-3.75-2.84-6.17-15.39-2.62-18.71l25.66-23.94c3.34-3.12,13.52-2.26,16.78.34,3.27,2.6,5.52,13.58,2.61,16.59l-23.86,24.64Z"/>
  <path fill="#0af9fc" d="M548.68,634.08c4.61,4.21,4.3,13.73.26,18.28-4.05,4.55-14.11,6.14-19.19,1.3l-23.26-22.18c-3.95-3.77-1.65-14.46,1.86-17.65,4.41-4,13.9-3.91,18.27.09l22.06,20.15Z"/>
  <path fill="#0af9fc" d="M997.66,762.01c-3.68,5.95-12.05,8.87-17.97,6.3s-9.9-12.76-6.44-18.35l15.37-24.82c3.71-5.99,13.77-7.39,18.76-4.18,6.56,4.21,7.69,12.9,3.6,19.51l-13.32,21.53Z"/>
  <path fill="#0af9fc" d="M919.99,887.01c-3.59,6.04-14.71,7.05-20.05,3.19-4.47-3.23-7.25-12.69-3.73-18.22l14.99-23.56c2.85-4.47,11.9-6.23,17.23-4.33,5.33,1.9,9.66,12.5,6.33,18.09l-14.77,24.83Z"/>
  <path fill="#0af9fc" d="M1074.62,639.63c-3.18,5.09-12.7,7.57-17.47,5.47-4.25-1.87-9.61-12.42-7.2-16.56l14.9-25.62c3.74-6.44,12.24-9.06,19.5-5.67,6.11,2.86,8.78,12.71,4.5,19.57l-14.23,22.81Z"/>
  <path fill="#0af9fc" d="M1034.91,703c-2.64,4.48-14.66,5.1-18.57,2.33-3.74-2.65-7.09-12.59-4.52-16.74l16.62-26.79c2.42-3.9,12.61-5.48,16.74-3.5,4.25,2.04,8.96,12.08,6.32,16.55l-16.59,28.15Z"/>
  <path fill="#0af9fc" d="M958.42,825.37c-2.26,3.9-11.97,6.41-16.08,5.26-4.44-1.24-11.62-10.55-8.97-14.98l17.92-29.88c2.39-3.98,11.51-5.51,15.44-4.08,4.83,1.75,10.03,12.01,7.36,16.63l-15.68,27.05Z"/>
  <path fill="#0af9fc" d="M292.07,708.7c-4.71,4.86-13.85,5.37-18.44.99-5.41-5.16-6.07-14.62-.65-20l20.39-20.23c3.36-3.34,13.96-3.1,17.83-.06,3.66,2.87,5.3,14.08,1.82,17.68l-20.95,21.63Z"/>
  <path fill="#0af9fc" d="M791.62,869c3.83,3.54,3.45,14.12.62,17.58s-14.2,6.14-17.82,2.9l-21.31-19.01c-3.76-3.36-3.23-14.83-.05-18.65,3.07-3.68,14.26-5.24,18.13-1.68l20.43,18.85Z"/>
  <path fill="#0af9fc" d="M740.54,822.24c4.55,4.04,2.3,15.22-1.27,18.51-4.39,4.05-14.47,3.94-18.81-.11l-17.2-16.06c-3.97-3.71-5.23-12.73-2.53-17.75,2.22-4.13,13.68-7.81,17.39-4.52l22.42,19.91Z"/>
  <path fill="#0af9fc" d="M690.54,776.88c4.11,4.09,1.5,16.69-3.06,19.06-6.36,3.31-14.9,1.85-19.8-3.41l-15.68-16.84c-2.91-3.13.32-13.9,3.45-16.68,3.7-3.29,13.59-3.47,17.35.26l17.74,17.61Z"/>
  <path fill="#0af9fc" d="M570.97,386.34c-5.41-5.67-14.94-5.95-20.91-.51-5.08,4.63-5.14,14.29,1.29,20.13,24.45,22.22,46.23,44.75,65.86,72.21-55.02-2.12-97.85-21.34-117.06-72.51-10.82-28.83-15.25-58.04-16.32-89.41,49.53,6.07,115.15,23.7,135.86,67.89,9.61,20.5,13.73,42.46,12.06,65.93l-60.78-63.72Z"/>
</svg>